# xmcd
#
# Track frame offsets:
#	150
#	11915
#	26352
#	42235
#	58105
#	73675
#	91125
#	103967
#	117967
#	130872
#	147337
#	160965
#
# Disc length: 2352 seconds
#
# Revision: 2
# Processed by: cddbd v1.5.1PL0 Copyright (c) Steve Scherf et al.
# Submitted via: EasyCDDAExtractor 6.0.0.1
#
DISCID=a7092e0c
DTITLE=Greyhounds - Nimm es leicht1991
DYEAR=1991
DGENRE=Country
TTITLE0=Nimm es leicht
TTITLE1=Asphalt Cowboy
TTITLE2=Louisiana Cajun Band
TTITLE3=Girl aus Germany
TTITLE4=Achsbruch
TTITLE5=Alte Landstrass'
TTITLE6=Typen mit dem Cowboyhut
TTITLE7=Razzia
TTITLE8=Erstens kommt es anders
TTITLE9=Highway Queen
TTITLE10=Ich liebe meinen Truck
TTITLE11=Kneipentour
EXTD=
EXTT0=
EXTT1=
EXTT2=
EXTT3=
EXTT4=
EXTT5=
EXTT6=
EXTT7=
EXTT8=
EXTT9=
EXTT10=
EXTT11=
PLAYORDER=
